<svg xmlns="http://www.w3.org/2000/svg" version="1.1" xmlns:xlink="http://www.w3.org/1999/xlink" xmlns:svgjs="http://svgjs.com/svgjs" width="1025" height="1025"><defs id="SvgjsDefs1001"></defs><svg id="SvgjsSvg1002" width="2" height="0" focusable="false" style="overflow:hidden;top:-100%;left:-100%;position:absolute;opacity:0"><polyline id="SvgjsPolyline1003" points="0,0"></polyline><path id="SvgjsPath1004" d="M11.548481370261943 31.52723429340576C10.673355706050785 31.70725406860007 9.862343011471172 32.18889405088748 9.088259200299216 32.95614101466817C8.313216501084359 33.73746992146904 7.898318118268817 34.62864345709772 7.830498227788595 35.61459839932859C7.787866689068984 36.234321176583414 7.950561924930525 36.95318442942081 8.307428091557206 37.727933683222524C8.663315880546623 38.51678833691788 9.244889274393573 39.108957106841686 10.023015227437348 39.516614110307955C10.286584705826531 39.59145717448849 10.403580740814997 39.741072932229194 10.390015983135166 39.93826704825846C10.385178665813141 40.00870412971171 10.281798061449845 40.07229962307902 10.038622494606905 40.112078570949734C8.779972796593109 39.69946825770926 7.771721509094889 38.93624414772308 7.026034036916455 37.85153576832133C6.281309350699808 36.7527571743361 5.940416855616777 35.54038867073089 6.005266531915393 34.1862780999021C6.147295001909569 32.73844559125472 6.676675262040172 31.416498303387318 7.592428934669938 30.234490812967767C8.523236369989224 29.039394387170198 9.66814479527392 28.227047674727462 11.027158108442888 27.797485860949678L10.39986212620966 22.730097492296693C8.108104112041264 24.3829391653069 6.219706640822806 26.134467814346607 4.71866485765964 28.01186995572958C3.2185975542148615 29.875174516176777 2.368488733333917 31.953289304604656 2.154251316207924 34.245252589202295C2.1116665525147997 35.27539246203118 2.254022447694355 36.29004297943363 2.582270093951708 37.27509874151606C2.909551056328433 38.27424426557651 3.440693175789857 39.18842508456823 4.173731901223727 40.04582463192615C5.654863114780987 41.74750742491167 7.666902572667264 42.7217182925083 10.180728922978554 42.98062744255103C11.043264309228258 42.983680745576805 11.968879716608017 42.89208947376208 12.9716466322512 42.70674498829749L11.548481370261943 31.52723429340576ZM12.571649993289096 31.456535276865814L14.02246319384817 42.43985659180719C16.250283644734353 41.71658344676356 17.464953124098297 39.89014136292304 17.66454995793538 36.988647312579054C17.60470520947035 36.00800926166064 17.383256642428353 35.11527193446946 16.95795081622053 34.30745630807902C16.547702650621094 33.48656347474731 15.970970472015075 32.82396544232809 15.213706180782314 32.31867702213698C14.45644188954955 31.81340423986152 13.585143981672202 31.526671328443264 12.571649993289096 31.456535276865814ZM10.69366776130067 16.6084477659635C11.177555410258504 16.358901817901106 11.746370915632419 15.902958840464217 12.370977333842934 15.252730399304246C12.994613170253936 14.616595629601163 13.612885470294989 13.85272645559544 14.209781583233694 12.988301574643058C14.821735356780781 12.110772120397051 15.322056631709353 11.211369131670796 15.71071422466839 10.29008869898537C16.09841292958457 9.382886299841223 16.31429137055631 8.506248206785829 16.37049546279348 7.689323494543903C16.394721028592347 7.337196729461461 16.390784130530115 6.983126953362625 16.341717127750343 6.668386535060269C16.32029416562152 6.157425460976257 16.192582751649745 5.752336985151347 15.943552510658794 5.466202224005742C15.69353609619283 5.194165043795942 15.365397591663925 5.029935653903824 14.943112652583093 5.000716208558792C14.098527182745906 4.942265589432019 13.302572148774653 5.410785360510196 12.555212469399494 6.406314616582376C11.972380047756433 7.271716867261332 11.462384138183813 8.31197838097838 11.069376467761908 9.501843923999424C10.661334524244891 10.704829678229702 10.395024808887635 11.903472001395187 10.282569849386801 13.126908239783868C10.257030684927551 14.526200658331742 10.403783432596416 15.682671432535928 10.69366776130067 16.6084477659635ZM9.750675431582794 17.364013206772423C9.274197726403498 15.038408856186843 9.082166753099921 12.690031790972565 9.174551328321039 10.318889830087425C9.293278039289339 8.798681138449352 9.54597622194029 7.386823654696903 9.932641978354981 6.083293921956681C10.30524404347403 4.7787946384477005 10.791942091939662 3.6661608512188737 11.394650001918768 2.717232583708724C11.983302016440003 1.7673269464720232 12.639922042358679 1.0627176537266587 13.350461980054629 0.6024195167882422C13.986742665291308 0.193597488607905 14.43958339042161 -0.01563782245251525 14.678872732147676 0.0009110017574744114C14.861876125340213 0.013573803934701022 15.011875839430717 0.09471503863310507 15.143906147514338 0.23122622308018814C15.275948149354575 0.36773740752727124 15.444412305148905 0.5916684497961487 15.65025750294021 0.8889608637400895C17.161589791929458 3.385253063370877 17.808503999853066 6.317037756280153 17.577907017214944 9.66925562972121C17.468418373976853 11.260851406186719 17.150699006596863 12.795587721440285 16.6218410675953 14.315706495063521C16.10802129960778 15.822720695393135 15.401975662372966 17.245661551844684 14.505641421571044 18.556365178377806C13.594265111836213 19.88020074455691 12.554729127459181 21.011166078376966 11.371971909912675 21.962408757399597L12.130401678888623 27.5907956206572C12.754606611455161 27.563233794368397 13.180777775652889 27.536121558153823 13.420067117378954 27.55268992975834C14.489858748052178 27.62672764128418 15.431549172866308 27.91832785394067 16.287345057383707 28.43043049586528C17.14313314606338 28.942525318832097 17.86160534866693 29.600779920186525 18.42766502539727 30.418314511137815C18.99469528392713 31.22176715906892 19.413218731295036 32.12815638660059 19.683219775825492 33.1374861032117C19.939161026979193 34.14583845009625 20.05141329469861 35.18670593304377 19.97778940301571 36.2571642618324C19.863447850780098 37.91919711975111 19.32244399656869 39.41017463760746 18.35573672842435 40.715991415507794C17.389029460280028 42.02189029246522 16.011146321844368 42.931289818754664 14.207053040022233 43.45739230464241C14.272195060236378 44.155343754810524 14.400456080769303 45.16904035935985 14.607891629461017 46.471193955525116C14.800281211300963 47.786538133519926 14.9406959428815 48.829395541230696 15.029147517959249 49.59963325637461C15.117571807604882 50.36997261797013 15.123504440130368 51.10634251734956 15.07408662465198 51.82468190001352C14.997547089651679 52.93735478203142 14.662279291503127 53.90476706581017 14.067308750487951 54.74108670290577C13.458258926501632 55.57633123330221 12.679789956596967 56.20169538861868 11.717818659883951 56.61631908349583C10.769918850304327 57.03191623862062 9.739956154680621 57.201220132133024 8.642009855984021 57.12518858636499C7.093623950183167 57.01803758850358 5.772334695872039 56.48789661090571 4.677191000845486 55.548855415549355C3.583017887618414 54.59561890228457 3.044072134572223 53.38377426885279 3.090472960842509 51.88682697670669C3.1782385021985213 51.2277709321765 3.375707072330658 50.618744489209085 3.6979324339284396 50.04665480294756C4.020142203850721 49.47455338824929 4.433142300174869 49.022023385897526 4.951004210034231 48.689936609688324C5.4557652145597135 48.34268887428081 6.046448044814062 48.185500455898776 6.710945764776092 48.18904635326669C7.2599130672460745 48.226964389178036 7.770068791492527 48.41802453280348 8.24239521307151 48.74784381124711C8.69967956571763 49.09086539995702 9.06572143337257 49.52655727665971 9.325463155427943 50.068215579115275C9.571133390349924 50.60880659382948 9.686242832603632 51.197042427973656 9.643611293884021 51.81680430001753C9.58645221152284 52.64780704580069 9.256489480961129 53.33257182361816 8.653711408442298 53.87107517659643C8.050941131761217 54.409594167490326 7.31270258255007 54.65569586463633 6.454049523498377 54.59621314307832L6.13030397353993 54.5738626521715C6.621149407686988 55.456967023337754 7.491987361137272 55.95588690239066 8.744770691246421 56.04264605827728C9.378190304029943 56.08647522629483 10.035395017779631 55.99045060540045 10.700344896331 55.78166097493535C11.380336843815229 55.55988014606486 11.95353361000299 55.24571442116173 12.449052648879377 54.82716169998385C12.944571687755786 54.408601159848125 13.287194858818651 53.95114912355346 13.448755800288005 53.452811756857585C13.72778052701064 52.891950094014696 13.89561321994746 52.096891097295206 13.964403692227219 51.09688548787545C14.01090976230709 50.42079584375087 13.9870389071257 49.73987799317714 13.906862613816422 49.05501938786594C13.825704044951015 48.38423881609601 13.689682267940935 47.48320948414479 13.49780721139228 46.36611498148397C13.304965470962996 45.263090693406596 13.16602805063551 44.40431109999475 13.093144763538573 43.819019103466985C12.234031750059815 43.97187190974199 11.353554243235344 44.0241611901126 10.438607439812374 43.9608354507898C8.904300816982662 43.85456799516115 7.47576032486684 43.444385468321435 6.15396434110215 42.71609646184114C4.832168357337459 41.98781136483977 3.695761293115902 41.03172484145236 2.7316305493469617 39.8327971263267C1.7815712927114022 38.634885875716684 1.0664279128258245 37.311711011472745 0.5881337774514726 35.83509691911781C0.12293664949213615 34.37354995846743 -0.06995966180137092 32.86007729898474 0.022541850985944873 31.309761710289923C0.17767512423287496 29.876996333347066 0.540072437741064 28.515184089073035 1.1359511938537916 27.254439693482396C1.732800531766011 25.97960944539266 2.4655703007976233 24.78494697175369 3.347380895876848 23.685511585312227C4.229168103442825 22.58606056095513 5.13232370227341 21.587173062502526 6.055892702244578 20.70291539505892C6.992574301306239 19.83370140244643 8.215105883038062 18.715391051845785 9.750675431582794 17.364013206772423Z "></path></svg><path id="SvgjsPath1006" d="M21.54848137026197 41.52723429340574C20.673355706050813 41.70725406860005 19.8623430114712 42.18889405088746 19.088259200299245 42.956141014668155C18.313216501084387 43.73746992146903 17.898318118268847 44.62864345709771 17.830498227788624 45.61459839932858C17.787866689069013 46.2343211765834 17.950561924930554 46.953184429420794 18.307428091557234 47.72793368322251C18.66331588054665 48.51678833691786 19.2448892743936 49.10895710684167 20.023015227437376 49.51661411030794C20.28658470582656 49.591457174488475 20.403580740815023 49.74107293222918 20.390015983135193 49.938267048258446C20.38517866581317 50.008704129711695 20.281798061449873 50.072299623079005 20.038622494606933 50.11207857094972C18.779972796593135 49.69946825770925 17.771721509094917 48.936244147723066 17.026034036916485 47.85153576832131C16.281309350699836 46.75275717433608 15.940416855616807 45.54038867073088 16.00526653191542 44.18627809990208C16.147295001909598 42.7384455912547 16.6766752620402 41.4164983033873 17.592428934669968 40.23449081296775C18.523236369989252 39.039394387170184 19.668144795273946 38.227047674727444 21.02715810844292 37.797485860949664L20.39986212620969 32.73009749229668C18.108104112041293 34.38293916530689 16.219706640822835 36.13446781434659 14.718664857659668 38.011869955729566C13.21859755421489 39.87517451617676 12.368488733333946 41.95328930460464 12.154251316207953 44.24525258920228C12.111666552514828 45.275392462031164 12.254022447694384 46.290042979433615 12.582270093951736 47.27509874151605C12.90955105632846 48.2742442655765 13.440693175789885 49.188425084568216 14.173731901223755 50.04582463192614C15.654863114781016 51.74750742491165 17.666902572667293 52.721718292508285 20.18072892297858 52.98062744255102C21.043264309228285 52.98368074557679 21.968879716608043 52.89208947376206 22.97164663225123 52.70674498829747L21.54848137026197 41.52723429340574ZM22.571649993289125 41.4565352768658L24.022463193848196 52.43985659180718C26.25028364473438 51.71658344676354 27.464953124098326 49.890141362923025 27.66454995793541 46.98864731257904C27.604705209470378 46.008009261660625 27.383256642428382 45.11527193446945 26.95795081622056 44.307456308079004C26.547702650621122 43.48656347474729 25.970970472015104 42.823965442328074 25.213706180782342 42.31867702213697C24.45644188954958 41.813404239861505 23.585143981672232 41.52667132844325 22.571649993289125 41.4565352768658ZM20.6936677613007 26.608447765963483C21.177555410258535 26.358901817901092 21.746370915632447 25.9029588404642 22.370977333842962 25.25273039930423C22.994613170253963 24.616595629601147 23.61288547029502 23.852726455595423 24.20978158323372 22.988301574643042C24.82173535678081 22.110772120397037 25.32205663170938 21.21136913167078 25.71071422466842 20.290088698985354C26.098412929584597 19.382886299841207 26.31429137055634 18.506248206785813 26.370495462793507 17.689323494543885C26.394721028592375 17.337196729461446 26.390784130530143 16.983126953362607 26.34171712775037 16.668386535060254C26.320294165621547 16.157425460976242 26.192582751649773 15.75233698515133 25.943552510658822 15.466202224005727C25.693536096192858 15.194165043795927 25.365397591663953 15.029935653903808 24.94311265258312 15.000716208558776C24.098527182745933 14.942265589432003 23.30257214877468 15.410785360510179 22.55521246939952 16.40631461658236C21.97238004775646 17.271716867261315 21.462384138183843 18.311978380978363 21.069376467761934 19.50184392399941C20.66133452424492 20.704829678229686 20.395024808887662 21.903472001395173 20.28256984938683 23.12690823978385C20.257030684927578 24.526200658331724 20.403783432596445 25.682671432535912 20.6936677613007 26.608447765963483ZM19.75067543158282 27.364013206772405C19.27419772640353 25.038408856186827 19.082166753099948 22.690031790972547 19.174551328321066 20.318889830087407C19.29327803928937 18.798681138449336 19.545976221940318 17.386823654696887 19.932641978355008 16.083293921956667C20.305244043474058 14.778794638447685 20.79194209193969 13.666160851218859 21.394650001918798 12.717232583708707C21.98330201644003 11.767326946472007 22.639922042358705 11.062717653726644 23.350461980054657 10.602419516788226C23.986742665291338 10.193597488607889 24.43958339042164 9.98436217754747 24.678872732147703 10.000911001757459C24.861876125340242 10.013573803934685 25.011875839430743 10.094715038633089 25.143906147514365 10.231226223080172C25.275948149354605 10.367737407527255 25.444412305148933 10.591668449796133 25.65025750294024 10.888960863740074C27.161589791929487 13.385253063370861 27.808503999853095 16.317037756280136 27.577907017214972 19.669255629721192C27.46841837397688 21.260851406186703 27.15069900659689 22.79558772144027 26.62184106759533 24.315706495063505C26.10802129960781 25.82272069539312 25.401975662372994 27.24566155184467 24.50564142157107 28.55636517837779C23.594265111836243 29.880200744556895 22.55472912745921 31.011166078376952 21.371971909912702 31.96240875739958L22.130401678888653 37.59079562065718C22.754606611455188 37.56323379436838 23.180777775652917 37.53612155815381 23.420067117378984 37.55268992975832C24.489858748052207 37.62672764128416 25.431549172866337 37.91832785394065 26.287345057383735 38.43043049586527C27.14313314606341 38.94252531883208 27.86160534866696 39.60077992018651 28.4276650253973 40.4183145111378C28.994695283927157 41.221767159068904 29.413218731295064 42.12815638660057 29.68321977582552 43.137486103211685C29.93916102697922 44.145838450096235 30.051413294698637 45.186705933043754 29.977789403015738 46.257164261832386C29.863447850780126 47.9191971197511 29.32244399656872 49.41017463760745 28.35573672842438 50.71599141550778C27.389029460280057 52.02189029246521 26.011146321844397 52.93128981875465 24.20705304002226 53.4573923046424C24.272195060236406 54.15534375481051 24.40045608076933 55.16904035935983 24.607891629461044 56.4711939555251C24.80028121130099 57.78653813351991 24.94069594288153 58.82939554123068 25.029147517959277 59.599633256374595C25.11757180760491 60.36997261797011 25.123504440130397 61.106342517349546 25.074086624652008 61.82468190001351C24.997547089651707 62.937354782031406 24.662279291503154 63.904767065810155 24.06730875048798 64.74108670290575C23.45825892650166 65.5763312333022 22.679789956596995 66.20169538861866 21.71781865988398 66.61631908349581C20.769918850304357 67.0319162386206 19.739956154680648 67.201220132133 18.64200985598405 67.12518858636497C17.093623950183193 67.01803758850356 15.772334695872068 66.4878966109057 14.677191000845514 65.54885541554934C13.583017887618443 64.59561890228456 13.044072134572252 63.383774268852775 13.090472960842538 61.88682697670668C13.17823850219855 61.22777093217648 13.375707072330687 60.61874448920907 13.697932433928468 60.04665480294754C14.02014220385075 59.47455338824928 14.433142300174897 59.02202338589751 14.95100421003426 58.68993660968831C15.455765214559742 58.342688874280796 16.046448044814092 58.18550045589876 16.71094576477612 58.189046353266676C17.259913067246103 58.22696438917802 17.770068791492555 58.418024532803464 18.24239521307154 58.747843811247094C18.69967956571766 59.090865399957 19.065721433372598 59.526557276659695 19.325463155427972 60.06821557911526C19.571133390349953 60.60880659382946 19.68624283260366 61.19704242797364 19.64361129388405 61.816804300017516C19.586452211522868 62.647807045800675 19.256489480961157 63.332571823618146 18.653711408442327 63.87107517659641C18.050941131761245 64.40959416749031 17.3127025825501 64.65569586463631 16.454049523498405 64.5962131430783L16.13030397353996 64.57386265217148C16.621149407687017 65.45696702333774 17.4919873611373 65.95588690239065 18.74477069124645 66.04264605827726C19.37819030402997 66.08647522629481 20.03539501777966 65.99045060540043 20.70034489633103 65.78166097493533C21.380336843815257 65.55988014606484 21.95353361000302 65.24571442116171 22.449052648879405 64.82716169998383C22.944571687755815 64.4086011598481 23.28719485881868 63.95114912355345 23.448755800288033 63.45281175685757C23.72778052701067 62.89195009401468 23.89561321994749 62.09689109729519 23.964403692227247 61.09688548787543C24.01090976230712 60.42079584375085 23.98703890712573 59.739877993177124 23.90686261381645 59.055019387865926C23.825704044951046 58.384238816095994 23.689682267940963 57.48320948414477 23.497807211392306 56.36611498148395C23.304965470963026 55.26309069340658 23.16602805063554 54.404311099994736 23.093144763538604 53.81901910346697C22.23403175005984 53.97187190974198 21.353554243235372 54.024161190112586 20.4386074398124 53.96083545078979C18.90430081698269 53.85456799516113 17.47576032486687 53.44438546832142 16.153964341102178 52.716096461841126C14.832168357337487 51.98781136483976 13.69576129311593 51.031724841452345 12.73163054934699 49.83279712632669C11.78157129271143 48.63488587571667 11.066427912825853 47.31171101147273 10.588133777451501 45.835096919117795C10.122936649492164 44.373549958467414 9.930040338198658 42.86007729898473 10.022541850985974 41.309761710289905C10.177675124232904 39.87699633334705 10.540072437741092 38.51518408907302 11.13595119385382 37.25443969348238C11.732800531766038 35.97960944539265 12.465570300797651 34.784946971753676 13.347380895876876 33.68551158531221C14.229168103442852 32.58606056095511 15.132323702273439 31.587173062502508 16.055892702244606 30.702915395058902C16.992574301306266 29.833701402446415 18.215105883038092 28.71539105184577 19.75067543158282 27.364013206772405Z " fill="#131516" fill-rule="evenodd" stroke="#131516" stroke-width="0.06121717"></path></svg>